<svg xmlns="http://www.w3.org/2000/svg" viewBox="0 0 512 512" role="img" aria-labelledby="title desc">
  <title id="title">Expense Management</title>
  <desc id="desc">Logo with a financial dashboard and rising expense chart.</desc>
  <rect width="512" height="512" rx="104" fill="#17211b"/>
  <rect x="86" y="92" width="340" height="328" rx="56" fill="#f4f7f2"/>
  <rect x="124" y="130" width="264" height="54" rx="18" fill="#b8dfc3"/>
  <circle cx="154" cy="157" r="12" fill="#2f7d53"/>
  <circle cx="192" cy="157" r="12" fill="#236f91"/>
  <circle cx="230" cy="157" r="12" fill="#d89d26"/>
  <rect x="128" y="316" width="46" height="54" rx="12" fill="#2f7d53"/>
  <rect x="200" y="270" width="46" height="100" rx="12" fill="#236f91"/>
  <rect x="272" y="226" width="46" height="144" rx="12" fill="#d89d26"/>
  <path d="M136 284 204 230l58 40 110-106" fill="none" stroke="#17211b" stroke-width="26" stroke-linecap="round" stroke-linejoin="round"/>
  <path d="M136 284 204 230l58 40 110-106" fill="none" stroke="#b8dfc3" stroke-width="14" stroke-linecap="round" stroke-linejoin="round"/>
  <circle cx="372" cy="164" r="29" fill="#2f7d53"/>
  <path d="M362 164h20M372 154v20" stroke="#f4f7f2" stroke-width="11" stroke-linecap="round"/>
</svg>
